# Blender v2.76 (sub 0) OBJ File: 'Sphere16x16.blend'
# www.blender.org
o Cone
v 0.000000 -0.500000 -0.500000
v 0.049009 -0.500000 -0.497592
v 0.097545 -0.500000 -0.490393
v 0.145142 -0.500000 -0.478470
v 0.191342 -0.500000 -0.461940
v 0.235698 -0.500000 -0.440961
v 0.277785 -0.500000 -0.415735
v 0.317197 -0.500000 -0.386505
v 0.353553 -0.500000 -0.353553
v 0.386505 -0.500000 -0.317197
v 0.415735 -0.500000 -0.277785
v 0.440961 -0.500000 -0.235698
v 0.461940 -0.500000 -0.191342
v 0.478470 -0.500000 -0.145142
v 0.490393 -0.500000 -0.097545
v 0.497592 -0.500000 -0.049009
v 0.500000 -0.500000 0.000000
v 0.000000 0.500000 0.000000
v 0.497592 -0.500000 0.049009
v 0.490393 -0.500000 0.097545
v 0.478470 -0.500000 0.145142
v 0.461940 -0.500000 0.191342
v 0.440961 -0.500000 0.235699
v 0.415735 -0.500000 0.277785
v 0.386505 -0.500000 0.317197
v 0.353553 -0.500000 0.353554
v 0.317196 -0.500000 0.386505
v 0.277785 -0.500000 0.415735
v 0.235698 -0.500000 0.440961
v 0.191341 -0.500000 0.461940
v 0.145142 -0.500000 0.478470
v 0.097545 -0.500000 0.490393
v 0.049008 -0.500000 0.497592
v -0.000000 -0.500000 0.500000
v -0.049009 -0.500000 0.497592
v -0.097546 -0.500000 0.490393
v -0.145143 -0.500000 0.478470
v -0.191342 -0.500000 0.461940
v -0.235699 -0.500000 0.440960
v -0.277786 -0.500000 0.415735
v -0.317197 -0.500000 0.386505
v -0.353554 -0.500000 0.353553
v -0.386506 -0.500000 0.317196
v -0.415735 -0.500000 0.277785
v -0.440961 -0.500000 0.235698
v -0.461940 -0.500000 0.191342
v -0.478470 -0.500000 0.145142
v -0.490393 -0.500000 0.097545
v -0.497592 -0.500000 0.049009
v -0.500000 -0.500000 0.000000
v -0.497592 -0.500000 -0.049008
v -0.490393 -0.500000 -0.097545
v -0.478470 -0.500000 -0.145142
v -0.461940 -0.500000 -0.191341
v -0.440961 -0.500000 -0.235698
v -0.415735 -0.500000 -0.277784
v -0.386506 -0.500000 -0.317196
v -0.353554 -0.500000 -0.353553
v -0.317198 -0.500000 -0.386505
v -0.277786 -0.500000 -0.415734
v -0.235700 -0.500000 -0.440960
v -0.191343 -0.500000 -0.461939
v -0.145144 -0.500000 -0.478470
v -0.097547 -0.500000 -0.490392
v -0.049010 -0.500000 -0.497592
vt 0.187500 -0.000000
vt 0.000000 1.000000
vt 0.125000 -0.000000
vt 1.000000 1.000000
vt 1.000000 0.875000
vt 0.312500 -0.000000
vt 0.375000 -0.000000
vt 0.500000 -0.000000
vt 0.625000 -0.000000
vt 0.812500 -0.000000
vt 1.000000 -0.000000
vt 1.000000 0.187500
vt 1.000000 0.375000
vt 1.000000 0.500000
vt 1.000000 0.625000
vt 1.000000 0.687500
vt 1.000000 0.812500
vt 1.000000 0.937500
vt 0.062500 -0.000000
vt 0.000000 -0.000000
vt 0.437500 -0.000000
vt 0.562500 -0.000000
vt 0.687500 -0.000000
vt 1.000000 0.250000
vt 1.000000 0.750000
vt 0.875000 0.000000
vt 1.000000 0.125000
vt 1.000000 0.312500
vt 1.000000 0.437500
vt 1.000000 0.562500
vt 0.250000 0.000000
vt 0.500000 1.000000
vt 0.437500 1.000000
vt 0.375000 1.000000
vt 0.312500 1.000000
vt 0.250000 1.000000
vt 0.187500 1.000000
vt 0.125000 1.000000
vt -0.000000 0.937500
vt -0.000000 0.875000
vt -0.000000 0.812500
vt -0.000000 0.750000
vt -0.000000 0.687500
vt -0.000000 0.500000
vt -0.000000 0.625000
vt -0.000000 0.562500
vt -0.000000 0.312500
vt -0.000000 0.437500
vt -0.000000 0.375000
vt -0.000000 0.187500
vt -0.000000 0.062500
vt -0.000000 0.125000
vt 0.750000 -0.000000
vt 1.000000 0.062500
vt 0.875000 1.000000
vt 0.812500 1.000000
vt 0.750000 1.000000
vt 0.687500 1.000000
vt 0.625000 1.000000
vt 0.562500 1.000000
vn -0.131300 0.446800 -0.885000
vn 0.043900 0.446800 -0.893600
vn -0.217400 0.446800 -0.867800
vn -0.301400 0.446800 -0.842300
vn -0.382500 0.446800 -0.808700
vn -0.459900 0.446800 -0.767400
vn -0.532900 0.446800 -0.718600
vn -0.600800 0.446800 -0.662900
vn -0.662900 0.446800 -0.600800
vn -0.718600 0.446800 -0.532900
vn -0.767400 0.446800 -0.459900
vn -0.808700 0.446800 -0.382500
vn -0.842300 0.446800 -0.301400
vn -0.867800 0.446800 -0.217400
vn -0.885000 0.446800 -0.131300
vn -0.893600 0.446800 -0.043900
vn -0.893600 0.446800 0.043900
vn -0.885000 0.446800 0.131300
vn -0.867800 0.446800 0.217400
vn -0.842300 0.446800 0.301400
vn -0.808700 0.446800 0.382500
vn -0.767400 0.446800 0.459900
vn -0.718600 0.446800 0.532900
vn -0.662900 0.446800 0.600800
vn -0.600800 0.446800 0.662900
vn -0.532900 0.446800 0.718600
vn -0.459900 0.446800 0.767400
vn -0.382500 0.446800 0.808700
vn -0.301400 0.446800 0.842300
vn -0.217400 0.446800 0.867800
vn -0.131300 0.446800 0.885000
vn -0.043900 0.446800 0.893600
vn 0.043900 0.446800 0.893600
vn 0.131300 0.446800 0.885000
vn 0.217400 0.446800 0.867800
vn 0.301400 0.446800 0.842300
vn 0.382500 0.446800 0.808700
vn 0.459900 0.446800 0.767400
vn 0.532900 0.446800 0.718600
vn 0.600800 0.446800 0.662900
vn 0.662900 0.446800 0.600800
vn 0.718600 0.446800 0.532900
vn 0.767400 0.446800 0.459900
vn 0.808700 0.446800 0.382500
vn 0.842300 0.446800 0.301400
vn 0.867800 0.446800 0.217400
vn 0.885000 0.446800 0.131300
vn 0.893600 0.446800 0.043900
vn 0.893600 0.446800 -0.043900
vn 0.885000 0.446800 -0.131300
vn 0.867800 0.446800 -0.217400
vn 0.842300 0.446800 -0.301400
vn 0.808700 0.446800 -0.382500
vn 0.767400 0.446800 -0.459900
vn 0.718600 0.446800 -0.532900
vn 0.662900 0.446800 -0.600800
vn 0.600800 0.446800 -0.662900
vn 0.532900 0.446800 -0.718600
vn 0.459900 0.446800 -0.767400
vn 0.382500 0.446800 -0.808700
vn 0.301400 0.446800 -0.842300
vn 0.217400 0.446800 -0.867800
vn -0.043900 0.446800 -0.893600
vn 0.131300 0.446800 -0.885000
vn 0.000000 -1.000000 0.000000
s off
f 64/1/1 18/2/1 65/3/1
f 1/4/2 18/2/2 2/5/2
f 63/6/3 18/2/3 64/1/3
f 62/7/4 18/2/4 63/6/4
f 61/8/5 18/2/5 62/7/5
f 60/9/6 18/2/6 61/8/6
f 59/10/7 18/2/7 60/9/7
f 58/11/8 18/2/8 59/10/8
f 57/12/9 18/2/9 58/11/9
f 56/13/10 18/2/10 57/12/10
f 55/14/11 18/2/11 56/13/11
f 54/15/12 18/2/12 55/14/12
f 53/16/13 18/2/13 54/15/13
f 52/17/14 18/2/14 53/16/14
f 51/18/15 18/2/15 52/17/15
f 50/4/16 18/2/16 51/18/16
f 49/19/17 18/2/17 50/20/17
f 48/1/18 18/2/18 49/19/18
f 47/6/19 18/2/19 48/1/19
f 46/21/20 18/2/20 47/6/20
f 45/22/21 18/2/21 46/21/21
f 44/23/22 18/2/22 45/22/22
f 43/10/23 18/2/23 44/23/23
f 42/11/24 18/2/24 43/10/24
f 41/24/25 18/2/25 42/11/25
f 40/13/26 18/2/26 41/24/26
f 39/14/27 18/2/27 40/13/27
f 38/15/28 18/2/28 39/14/28
f 37/25/29 18/2/29 38/15/29
f 36/17/30 18/2/30 37/25/30
f 35/18/31 18/2/31 36/17/31
f 34/4/32 18/2/32 35/18/32
f 33/19/33 18/2/33 34/20/33
f 32/1/34 18/2/34 33/19/34
f 31/6/35 18/2/35 32/1/35
f 30/21/36 18/2/36 31/6/36
f 29/22/37 18/2/37 30/21/37
f 28/23/38 18/2/38 29/22/38
f 27/26/39 18/2/39 28/23/39
f 26/11/40 18/2/40 27/26/40
f 25/27/41 18/2/41 26/11/41
f 24/28/42 18/2/42 25/27/42
f 23/29/43 18/2/43 24/28/43
f 22/30/44 18/2/44 23/29/44
f 21/16/45 18/2/45 22/30/45
f 20/17/46 18/2/46 21/16/46
f 19/18/47 18/2/47 20/17/47
f 17/4/48 18/2/48 19/18/48
f 16/19/49 18/2/49 17/20/49
f 15/1/50 18/2/50 16/19/50
f 14/31/51 18/2/51 15/1/51
f 13/7/52 18/2/52 14/31/52
f 12/8/53 18/2/53 13/7/53
f 11/9/54 18/2/54 12/8/54
f 10/10/55 18/2/55 11/9/55
f 9/11/56 18/2/56 10/10/56
f 8/12/57 18/2/57 9/11/57
f 7/13/58 18/2/58 8/12/58
f 6/14/59 18/2/59 7/13/59
f 5/15/60 18/2/60 6/14/60
f 4/16/61 18/2/61 5/15/61
f 3/17/62 18/2/62 4/16/62
f 65/3/63 18/2/63 1/20/63
f 2/5/64 18/2/64 3/17/64
f 33/21/65 57/18/65 65/32/65
f 65/32/65 1/32/65 2/33/65
f 2/33/65 3/34/65 65/32/65
f 4/35/65 5/36/65 6/37/65
f 6/37/65 7/38/65 8/2/65
f 8/2/65 9/39/65 10/40/65
f 10/40/65 11/41/65 12/42/65
f 12/42/65 13/43/65 16/44/65
f 14/45/65 15/46/65 16/44/65
f 16/44/65 17/44/65 21/47/65
f 19/48/65 20/49/65 21/47/65
f 21/47/65 22/50/65 25/51/65
f 23/52/65 24/52/65 25/51/65
f 25/51/65 26/20/65 27/3/65
f 27/3/65 28/1/65 29/6/65
f 29/6/65 30/6/65 31/7/65
f 31/7/65 32/21/65 33/21/65
f 33/21/65 34/8/65 37/23/65
f 35/22/65 36/9/65 37/23/65
f 37/23/65 38/53/65 41/11/65
f 39/10/65 40/26/65 41/11/65
f 41/11/65 42/54/65 43/27/65
f 43/27/65 44/12/65 45/24/65
f 45/24/65 46/28/65 47/13/65
f 47/13/65 48/29/65 49/14/65
f 49/14/65 50/14/65 51/30/65
f 51/30/65 52/15/65 53/16/65
f 53/16/65 54/25/65 55/17/65
f 55/17/65 56/5/65 57/18/65
f 57/18/65 58/4/65 59/55/65
f 59/55/65 60/56/65 61/57/65
f 61/57/65 62/58/65 65/32/65
f 63/59/65 64/60/65 65/32/65
f 65/32/65 3/34/65 4/35/65
f 4/35/65 6/37/65 65/32/65
f 8/2/65 10/40/65 12/42/65
f 13/43/65 14/45/65 16/44/65
f 17/44/65 19/48/65 21/47/65
f 22/50/65 23/52/65 25/51/65
f 25/51/65 27/3/65 29/6/65
f 29/6/65 31/7/65 33/21/65
f 34/8/65 35/22/65 37/23/65
f 38/53/65 39/10/65 41/11/65
f 41/11/65 43/27/65 45/24/65
f 45/24/65 47/13/65 41/11/65
f 49/14/65 51/30/65 57/18/65
f 53/16/65 55/17/65 57/18/65
f 57/18/65 59/55/65 65/32/65
f 62/58/65 63/59/65 65/32/65
f 65/32/65 6/37/65 8/2/65
f 8/2/65 12/42/65 16/44/65
f 16/44/65 21/47/65 25/51/65
f 25/51/65 29/6/65 16/44/65
f 33/21/65 37/23/65 41/11/65
f 41/11/65 47/13/65 49/14/65
f 51/30/65 53/16/65 57/18/65
f 59/55/65 61/57/65 65/32/65
f 65/32/65 8/2/65 16/44/65
f 16/44/65 29/6/65 33/21/65
f 33/21/65 41/11/65 49/14/65
f 49/14/65 57/18/65 33/21/65
f 65/32/65 16/44/65 33/21/65
